<svg id="visual" viewBox="0 0 900 600" width="900" height="600" xmlns="http://www.w3.org/2000/svg" xmlns:xlink="http://www.w3.org/1999/xlink" version="1.1"><rect width="900" height="600" fill="#06034f"></rect><g><g transform="translate(178 429)"><path d="M64.6 -23.6C72.9 4.3 61.1 36.1 38.4 52.6C15.6 69.1 -18.2 70.3 -41.4 54.1C-64.6 37.9 -77.2 4.4 -68.6 -24.2C-59.9 -52.7 -30 -76.3 -0.9 -76C28.2 -75.7 56.4 -51.6 64.6 -23.6Z" fill="none" stroke="#039cab" stroke-width="20"></path></g><g transform="translate(860 124)"><path d="M63.3 -19.5C72.5 7.6 63.7 41.6 41.8 57.5C19.9 73.4 -15.2 71.3 -37 54.6C-58.8 37.8 -67.3 6.6 -59 -19.5C-50.6 -45.5 -25.3 -66.4 0.9 -66.6C27.1 -66.9 54.2 -46.7 63.3 -19.5Z" fill="none" stroke="#039cab" stroke-width="20"></path></g><g transform="translate(630 243)"><path d="M28.8 -8.8C33.1 3.8 29.4 19.6 19.6 26.6C9.8 33.7 -6.1 32 -17.1 23.9C-28.2 15.8 -34.3 1.3 -30.6 -10.4C-27 -22.1 -13.5 -31.1 -0.6 -30.9C12.3 -30.7 24.6 -21.4 28.8 -8.8Z" fill="none" stroke="#039cab" stroke-width="20"></path></g><g transform="translate(72 10)"><path d="M45 -16.7C50.6 2.7 42.2 24.6 26.1 36.5C9.9 48.4 -14 50.3 -31.2 38.7C-48.5 27.2 -59.1 2.3 -52.8 -18.1C-46.5 -38.5 -23.3 -54.3 -1.8 -53.8C19.7 -53.2 39.3 -36.2 45 -16.7Z" stroke="#039cab" fill="none" stroke-width="20"></path></g><g transform="translate(380 505)"><path d="M30 -9.8C33.8 2.2 28.5 17 18.4 24.1C8.2 31.3 -6.8 30.6 -18.3 22.8C-29.9 15 -38 0 -34.4 -11.6C-30.7 -23.3 -15.4 -31.6 -1.2 -31.2C13.1 -30.9 26.1 -21.8 30 -9.8Z" stroke="#039cab" fill="none" stroke-width="20"></path></g><g transform="translate(406 9)"><path d="M22.7 -8.7C25.5 1.2 21.1 12 13.2 17.6C5.3 23.2 -6 23.5 -14.5 17.8C-23 12.2 -28.6 0.5 -25.8 -9.5C-22.9 -19.6 -11.4 -28 -0.7 -27.8C10 -27.5 19.9 -18.6 22.7 -8.7Z" stroke="#039cab" fill="none" stroke-width="20"></path></g><g transform="translate(882 473)"><path d="M30.5 -10.5C34.1 1.1 27.8 15.3 17.6 22.2C7.5 29 -6.5 28.6 -16 21.8C-25.4 15 -30.3 1.7 -26.9 -9.6C-23.5 -21 -11.8 -30.6 0.9 -30.9C13.5 -31.2 27 -22.2 30.5 -10.5Z" stroke="#039cab" fill="none" stroke-width="20"></path></g><g transform="translate(643 473)"><path d="M59.2 -18.8C67.2 5.4 57.7 35.8 37 50.8C16.3 65.8 -15.5 65.5 -37.4 49.9C-59.4 34.4 -71.4 3.6 -63.6 -20.4C-55.7 -44.4 -27.8 -61.6 -1.1 -61.3C25.6 -60.9 51.2 -42.9 59.2 -18.8Z" stroke="#039cab" fill="none" stroke-width="20"></path></g><g transform="translate(37 591)"><path d="M41.2 -13.9C45.9 1.3 37.3 20.3 23.4 29.9C9.5 39.4 -9.5 39.4 -23.4 29.9C-37.3 20.3 -46 1.3 -41.3 -13.9C-36.5 -29.2 -18.2 -40.6 0 -40.6C18.2 -40.5 36.4 -29.1 41.2 -13.9Z" stroke="#039cab" fill="none" stroke-width="20"></path></g><g transform="translate(673 31)"><path d="M53.3 -17.9C61.1 6.6 53.8 35.3 35.8 48.1C17.8 60.9 -10.9 57.7 -30.9 43.1C-51 28.4 -62.3 2.2 -55.7 -20.7C-49.1 -43.6 -24.5 -63.2 -0.9 -62.9C22.8 -62.6 45.5 -42.4 53.3 -17.9Z" stroke="#039cab" fill="none" stroke-width="20"></path></g><g transform="translate(153 221)"><path d="M54 -17.8C61 4.2 51.7 31.2 32 45.9C12.3 60.6 -17.6 63 -36.1 49.6C-54.6 36.2 -61.5 7 -53.6 -16.2C-45.7 -39.4 -22.8 -56.5 0.3 -56.6C23.5 -56.7 46.9 -39.8 54 -17.8Z" stroke="#039cab" fill="none" stroke-width="20"></path></g><g transform="translate(350 285)"><path d="M37 -10.5C42.2 4 36.8 23.6 23.5 33.4C10.3 43.3 -10.7 43.5 -24.8 33.4C-38.9 23.3 -46.2 3 -40.9 -11.6C-35.6 -26.2 -17.8 -35 -1 -34.7C15.9 -34.4 31.8 -25 37 -10.5Z" stroke="#039cab" fill="none" stroke-width="20"></path></g></g></svg>