<svg id="visual" viewBox="0 0 900 600" width="900" height="600" xmlns="http://www.w3.org/2000/svg" xmlns:xlink="http://www.w3.org/1999/xlink" version="1.1"><g stroke-width="1" stroke-linejoin="bevel"><path d="M493.3 359L389.7 381L500.3 468Z" fill="#3d1131" stroke="#3d1131"></path><path d="M389.7 381L365.7 508L500.3 468Z" fill="#4f0c28" stroke="#4f0c28"></path><path d="M500.3 468L611.9 383L493.3 359Z" fill="#3d1131" stroke="#3d1131"></path><path d="M254.1 231L285.1 392L389.7 381Z" fill="#051322" stroke="#051322"></path><path d="M389.7 381L285.1 392L365.7 508Z" fill="#051322" stroke="#051322"></path><path d="M285.1 392L266.1 454L365.7 508Z" fill="#00101c" stroke="#00101c"></path><path d="M500.3 468L629.9 484L611.9 383Z" fill="#14162c" stroke="#14162c"></path><path d="M528.3 600L629.9 484L500.3 468Z" fill="#321332" stroke="#321332"></path><path d="M233.1 600L393.7 600L365.7 508Z" fill="#0c1428" stroke="#0c1428"></path><path d="M365.7 508L393.7 600L500.3 468Z" fill="#1e1630" stroke="#1e1630"></path><path d="M393.7 600L528.3 600L500.3 468Z" fill="#051322" stroke="#051322"></path><path d="M611.9 383L545.3 230L493.3 359Z" fill="#14162c" stroke="#14162c"></path><path d="M493.3 359L370.7 204L389.7 381Z" fill="#281532" stroke="#281532"></path><path d="M545.3 230L370.7 204L493.3 359Z" fill="#460e2d" stroke="#460e2d"></path><path d="M528.3 600L641.9 600L629.9 484Z" fill="#3d1131" stroke="#3d1131"></path><path d="M370.7 204L254.1 231L389.7 381Z" fill="#4f0c28" stroke="#4f0c28"></path><path d="M285.1 392L139.6 394L266.1 454Z" fill="#281532" stroke="#281532"></path><path d="M611.9 383L636.9 211L545.3 230Z" fill="#560b22" stroke="#560b22"></path><path d="M545.3 230L515.3 122L370.7 204Z" fill="#051322" stroke="#051322"></path><path d="M744.4 269L636.9 211L611.9 383Z" fill="#460e2d" stroke="#460e2d"></path><path d="M744.4 269L611.9 383L798.4 327Z" fill="#00101c" stroke="#00101c"></path><path d="M102.6 510L233.1 600L266.1 454Z" fill="#0c1428" stroke="#0c1428"></path><path d="M266.1 454L233.1 600L365.7 508Z" fill="#281532" stroke="#281532"></path><path d="M636.9 211L515.3 122L545.3 230Z" fill="#460e2d" stroke="#460e2d"></path><path d="M370.7 204L251.1 100L254.1 231Z" fill="#321332" stroke="#321332"></path><path d="M254.1 231L139.6 394L285.1 392Z" fill="#321332" stroke="#321332"></path><path d="M798.4 463L611.9 383L629.9 484Z" fill="#4f0c28" stroke="#4f0c28"></path><path d="M636.9 211L663.9 146L515.3 122Z" fill="#051322" stroke="#051322"></path><path d="M515.3 122L382.7 93L370.7 204Z" fill="#321332" stroke="#321332"></path><path d="M744.4 269L663.9 146L636.9 211Z" fill="#14162c" stroke="#14162c"></path><path d="M515.3 122L498.3 0L382.7 93Z" fill="#460e2d" stroke="#460e2d"></path><path d="M779.4 600L798.4 463L629.9 484Z" fill="#00101c" stroke="#00101c"></path><path d="M798.4 463L798.4 327L611.9 383Z" fill="#560b22" stroke="#560b22"></path><path d="M744.4 269L749.4 103L663.9 146Z" fill="#051322" stroke="#051322"></path><path d="M139.6 394L102.6 510L266.1 454Z" fill="#281532" stroke="#281532"></path><path d="M102.6 510L135.6 600L233.1 600Z" fill="#3d1131" stroke="#3d1131"></path><path d="M382.7 93L251.1 100L370.7 204Z" fill="#00101c" stroke="#00101c"></path><path d="M254.1 231L106.6 247L139.6 394Z" fill="#4f0c28" stroke="#4f0c28"></path><path d="M641.9 600L779.4 600L629.9 484Z" fill="#560b22" stroke="#560b22"></path><path d="M93.6 120L106.6 247L254.1 231Z" fill="#4f0c28" stroke="#4f0c28"></path><path d="M139.6 394L0 486L102.6 510Z" fill="#281532" stroke="#281532"></path><path d="M382.7 93L359.7 0L251.1 100Z" fill="#1e1630" stroke="#1e1630"></path><path d="M645.9 0L498.3 0L515.3 122Z" fill="#460e2d" stroke="#460e2d"></path><path d="M498.3 0L359.7 0L382.7 93Z" fill="#3d1131" stroke="#3d1131"></path><path d="M900 226L749.4 103L744.4 269Z" fill="#3d1131" stroke="#3d1131"></path><path d="M663.9 146L645.9 0L515.3 122Z" fill="#1e1630" stroke="#1e1630"></path><path d="M798.4 463L900 373L798.4 327Z" fill="#3d1131" stroke="#3d1131"></path><path d="M798.4 327L900 226L744.4 269Z" fill="#3d1131" stroke="#3d1131"></path><path d="M900 600L900 457L798.4 463Z" fill="#4f0c28" stroke="#4f0c28"></path><path d="M900 457L900 373L798.4 463Z" fill="#00101c" stroke="#00101c"></path><path d="M106.6 247L0 375L139.6 394Z" fill="#00101c" stroke="#00101c"></path><path d="M102.6 510L0 600L135.6 600Z" fill="#051322" stroke="#051322"></path><path d="M0 375L0 486L139.6 394Z" fill="#560b22" stroke="#560b22"></path><path d="M749.4 103L645.9 0L663.9 146Z" fill="#051322" stroke="#051322"></path><path d="M106.6 247L0 254L0 375Z" fill="#321332" stroke="#321332"></path><path d="M251.1 100L93.6 120L254.1 231Z" fill="#1e1630" stroke="#1e1630"></path><path d="M136.6 0L93.6 120L251.1 100Z" fill="#00101c" stroke="#00101c"></path><path d="M359.7 0L227.1 0L251.1 100Z" fill="#4f0c28" stroke="#4f0c28"></path><path d="M0 127L0 254L106.6 247Z" fill="#0c1428" stroke="#0c1428"></path><path d="M779.4 600L900 600L798.4 463Z" fill="#051322" stroke="#051322"></path><path d="M0 486L0 600L102.6 510Z" fill="#3d1131" stroke="#3d1131"></path><path d="M900 373L900 226L798.4 327Z" fill="#3d1131" stroke="#3d1131"></path><path d="M749.4 103L796.4 0L645.9 0Z" fill="#281532" stroke="#281532"></path><path d="M227.1 0L136.6 0L251.1 100Z" fill="#051322" stroke="#051322"></path><path d="M93.6 120L0 127L106.6 247Z" fill="#4f0c28" stroke="#4f0c28"></path><path d="M0 0L0 127L93.6 120Z" fill="#3d1131" stroke="#3d1131"></path><path d="M900 85L796.4 0L749.4 103Z" fill="#560b22" stroke="#560b22"></path><path d="M900 226L900 85L749.4 103Z" fill="#051322" stroke="#051322"></path><path d="M900 85L900 0L796.4 0Z" fill="#14162c" stroke="#14162c"></path><path d="M136.6 0L0 0L93.6 120Z" fill="#00101c" stroke="#00101c"></path></g></svg>