<svg id="visual" viewBox="0 0 900 600" width="900" height="600" xmlns="http://www.w3.org/2000/svg" xmlns:xlink="http://www.w3.org/1999/xlink" version="1.1"><path d="M0 61L90 61L90 73L180 73L180 97L270 97L270 55L360 55L360 115L450 115L450 103L540 103L540 85L630 85L630 109L720 109L720 91L810 91L810 109L900 109L900 49L900 0L900 0L810 0L810 0L720 0L720 0L630 0L630 0L540 0L540 0L450 0L450 0L360 0L360 0L270 0L270 0L180 0L180 0L90 0L90 0L0 0Z" fill="#6969fa"></path><path d="M0 241L90 241L90 205L180 205L180 295L270 295L270 211L360 211L360 187L450 187L450 277L540 277L540 217L630 217L630 313L720 313L720 319L810 319L810 391L900 391L900 151L900 47L900 107L810 107L810 89L720 89L720 107L630 107L630 83L540 83L540 101L450 101L450 113L360 113L360 53L270 53L270 95L180 95L180 71L90 71L90 59L0 59Z" fill="#006dc8"></path><path d="M0 433L90 433L90 379L180 379L180 403L270 403L270 409L360 409L360 421L450 421L450 499L540 499L540 421L630 421L630 415L720 415L720 505L810 505L810 457L900 457L900 421L900 149L900 389L810 389L810 317L720 317L720 311L630 311L630 215L540 215L540 275L450 275L450 185L360 185L360 209L270 209L270 293L180 293L180 203L90 203L90 239L0 239Z" fill="#006086"></path><path d="M0 517L90 517L90 469L180 469L180 523L270 523L270 475L360 475L360 451L450 451L450 541L540 541L540 535L630 535L630 499L720 499L720 547L810 547L810 511L900 511L900 487L900 419L900 455L810 455L810 503L720 503L720 413L630 413L630 419L540 419L540 497L450 497L450 419L360 419L360 407L270 407L270 401L180 401L180 377L90 377L90 431L0 431Z" fill="#00494a"></path><path d="M0 601L90 601L90 601L180 601L180 601L270 601L270 601L360 601L360 601L450 601L450 601L540 601L540 601L630 601L630 601L720 601L720 601L810 601L810 601L900 601L900 601L900 485L900 509L810 509L810 545L720 545L720 497L630 497L630 533L540 533L540 539L450 539L450 449L360 449L360 473L270 473L270 521L180 521L180 467L90 467L90 515L0 515Z" fill="#0b2c0e"></path></svg>