<svg id="visual" viewBox="0 0 900 600" width="900" height="600" xmlns="http://www.w3.org/2000/svg" xmlns:xlink="http://www.w3.org/1999/xlink" version="1.1"><rect x="0" y="0" width="900" height="600" fill="#03026e"></rect><path d="M394 600L442 600L442 571L411 571L411 543L454 543L454 514L385 514L385 486L341 486L341 457L386 457L386 429L471 429L471 400L410 400L410 371L390 371L390 343L453 343L453 314L386 314L386 286L426 286L426 257L383 257L383 229L457 229L457 200L407 200L407 171L383 171L383 143L432 143L432 114L379 114L379 86L410 86L410 57L370 57L370 29L456 29L456 0L900 0L900 29L900 29L900 57L900 57L900 86L900 86L900 114L900 114L900 143L900 143L900 171L900 171L900 200L900 200L900 229L900 229L900 257L900 257L900 286L900 286L900 314L900 314L900 343L900 343L900 371L900 371L900 400L900 400L900 429L900 429L900 457L900 457L900 486L900 486L900 514L900 514L900 543L900 543L900 571L900 571L900 600L900 600Z" fill="#05008f"></path><path d="M461 600L528 600L528 571L541 571L541 543L436 543L436 514L534 514L534 486L545 486L545 457L519 457L519 429L547 429L547 400L527 400L527 371L425 371L425 343L518 343L518 314L458 314L458 286L464 286L464 257L540 257L540 229L515 229L515 200L513 200L513 171L523 171L523 143L513 143L513 114L539 114L539 86L547 86L547 57L509 57L509 29L463 29L463 0L900 0L900 29L900 29L900 57L900 57L900 86L900 86L900 114L900 114L900 143L900 143L900 171L900 171L900 200L900 200L900 229L900 229L900 257L900 257L900 286L900 286L900 314L900 314L900 343L900 343L900 371L900 371L900 400L900 400L900 429L900 429L900 457L900 457L900 486L900 486L900 514L900 514L900 543L900 543L900 571L900 571L900 600L900 600Z" fill="#0800a5"></path><path d="M576 600L615 600L615 571L601 571L601 543L580 543L580 514L523 514L523 486L515 486L515 457L558 457L558 429L537 429L537 400L543 400L543 371L524 371L524 343L522 343L522 314L601 314L601 286L608 286L608 257L616 257L616 229L548 229L548 200L588 200L588 171L521 171L521 143L549 143L549 114L597 114L597 86L514 86L514 57L513 57L513 29L599 29L599 0L900 0L900 29L900 29L900 57L900 57L900 86L900 86L900 114L900 114L900 143L900 143L900 171L900 171L900 200L900 200L900 229L900 229L900 257L900 257L900 286L900 286L900 314L900 314L900 343L900 343L900 371L900 371L900 400L900 400L900 429L900 429L900 457L900 457L900 486L900 486L900 514L900 514L900 543L900 543L900 571L900 571L900 600L900 600Z" fill="#0c00bb"></path><path d="M637 600L637 600L637 571L610 571L610 543L682 543L682 514L666 514L666 486L654 486L654 457L641 457L641 429L693 429L693 400L660 400L660 371L685 371L685 343L667 343L667 314L618 314L618 286L690 286L690 257L601 257L601 229L638 229L638 200L659 200L659 171L615 171L615 143L689 143L689 114L686 114L686 86L671 86L671 57L677 57L677 29L612 29L612 0L900 0L900 29L900 29L900 57L900 57L900 86L900 86L900 114L900 114L900 143L900 143L900 171L900 171L900 200L900 200L900 229L900 229L900 257L900 257L900 286L900 286L900 314L900 314L900 343L900 343L900 371L900 371L900 400L900 400L900 429L900 429L900 457L900 457L900 486L900 486L900 514L900 514L900 543L900 543L900 571L900 571L900 600L900 600Z" fill="#1000d1"></path><path d="M697 600L770 600L770 571L749 571L749 543L694 543L694 514L779 514L779 486L765 486L765 457L707 457L707 429L765 429L765 400L730 400L730 371L769 371L769 343L753 343L753 314L776 314L776 286L734 286L734 257L720 257L720 229L779 229L779 200L754 200L754 171L711 171L711 143L760 143L760 114L771 114L771 86L777 86L777 57L745 57L745 29L770 29L770 0L900 0L900 29L900 29L900 57L900 57L900 86L900 86L900 114L900 114L900 143L900 143L900 171L900 171L900 200L900 200L900 229L900 229L900 257L900 257L900 286L900 286L900 314L900 314L900 343L900 343L900 371L900 371L900 400L900 400L900 429L900 429L900 457L900 457L900 486L900 486L900 514L900 514L900 543L900 543L900 571L900 571L900 600L900 600Z" fill="#1400e8"></path><path d="M851 600L807 600L807 571L777 571L777 543L792 543L792 514L835 514L835 486L856 486L856 457L821 457L821 429L780 429L780 400L822 400L822 371L777 371L777 343L818 343L818 314L815 314L815 286L791 286L791 257L798 257L798 229L783 229L783 200L801 200L801 171L834 171L834 143L788 143L788 114L817 114L817 86L826 86L826 57L782 57L782 29L793 29L793 0L900 0L900 29L900 29L900 57L900 57L900 86L900 86L900 114L900 114L900 143L900 143L900 171L900 171L900 200L900 200L900 229L900 229L900 257L900 257L900 286L900 286L900 314L900 314L900 343L900 343L900 371L900 371L900 400L900 400L900 429L900 429L900 457L900 457L900 486L900 486L900 514L900 514L900 543L900 543L900 571L900 571L900 600L900 600Z" fill="#1900ff"></path></svg>