<svg id="visual" viewBox="0 0 900 600" width="900" height="600" xmlns="http://www.w3.org/2000/svg" xmlns:xlink="http://www.w3.org/1999/xlink" version="1.1"><rect x="0" y="0" width="900" height="600" fill="#000000"></rect><path d="M617 600L615.3 592.8C613.7 585.7 610.3 571.3 619.3 557C628.3 542.7 649.7 528.3 650.8 514C652 499.7 633 485.3 645.3 471.2C657.7 457 701.3 443 709 428.8C716.7 414.7 688.3 400.3 676 386C663.7 371.7 667.3 357.3 672.8 343C678.3 328.7 685.7 314.3 672 300C658.3 285.7 623.7 271.3 614.2 257C604.7 242.7 620.3 228.3 642.5 214C664.7 199.7 693.3 185.3 703 171.2C712.7 157 703.3 143 689.3 128.8C675.3 114.7 656.7 100.3 658.7 86C660.7 71.7 683.3 57.3 700.8 43C718.3 28.7 730.7 14.3 736.8 7.2L743 0L900 0L900 7.2C900 14.3 900 28.7 900 43C900 57.3 900 71.7 900 86C900 100.3 900 114.7 900 128.8C900 143 900 157 900 171.2C900 185.3 900 199.7 900 214C900 228.3 900 242.7 900 257C900 271.3 900 285.7 900 300C900 314.3 900 328.7 900 343C900 357.3 900 371.7 900 386C900 400.3 900 414.7 900 428.8C900 443 900 457 900 471.2C900 485.3 900 499.7 900 514C900 528.3 900 542.7 900 557C900 571.3 900 585.7 900 592.8L900 600Z" fill="#c3a807" stroke-linecap="round" stroke-linejoin="miter"></path></svg>