<svg id="visual" viewBox="0 0 900 600" width="900" height="600" xmlns="http://www.w3.org/2000/svg" xmlns:xlink="http://www.w3.org/1999/xlink" version="1.1"><rect width="900" height="600" fill="#000000"></rect><g><g transform="translate(492 56)"><path d="M0 -71.4L61.9 -35.7L61.9 35.7L0 71.4L-61.9 35.7L-61.9 -35.7Z" fill="#FF0066"></path></g><g transform="translate(533 393)"><path d="M0 -50L43.3 -25L43.3 25L0 50L-43.3 25L-43.3 -25Z" fill="#FF0066"></path></g><g transform="translate(496 551)"><path d="M0 -68L58.9 -34L58.9 34L0 68L-58.9 34L-58.9 -34Z" fill="#FF0066"></path></g><g transform="translate(21 569)"><path d="M0 -43L37.2 -21.5L37.2 21.5L0 43L-37.2 21.5L-37.2 -21.5Z" fill="#FF0066"></path></g><g transform="translate(879 135)"><path d="M0 -41L35.5 -20.5L35.5 20.5L0 41L-35.5 20.5L-35.5 -20.5Z" fill="#FF0066"></path></g><g transform="translate(100 349)"><path d="M0 -52L45 -26L45 26L0 52L-45 26L-45 -26Z" fill="#FF0066"></path></g><g transform="translate(699 394)"><path d="M0 -47L40.7 -23.5L40.7 23.5L0 47L-40.7 23.5L-40.7 -23.5Z" fill="#FF0066"></path></g><g transform="translate(227 191)"><path d="M0 -38L32.9 -19L32.9 19L0 38L-32.9 19L-32.9 -19Z" fill="#FF0066"></path></g><g transform="translate(847 588)"><path d="M0 -49L42.4 -24.5L42.4 24.5L0 49L-42.4 24.5L-42.4 -24.5Z" fill="#FF0066"></path></g><g transform="translate(287 404)"><path d="M0 -51L44.2 -25.5L44.2 25.5L0 51L-44.2 25.5L-44.2 -25.5Z" fill="#FF0066"></path></g><g transform="translate(401 300)"><path d="M0 -53L45.9 -26.5L45.9 26.5L0 53L-45.9 26.5L-45.9 -26.5Z" fill="#FF0066"></path></g><g transform="translate(171 567)"><path d="M0 -39L33.8 -19.5L33.8 19.5L0 39L-33.8 19.5L-33.8 -19.5Z" fill="#FF0066"></path></g><g transform="translate(278 10)"><path d="M0 -54L46.8 -27L46.8 27L0 54L-46.8 27L-46.8 -27Z" fill="#FF0066"></path></g><g transform="translate(753 63)"><path d="M0 -41L35.5 -20.5L35.5 20.5L0 41L-35.5 20.5L-35.5 -20.5Z" fill="#FF0066"></path></g><g transform="translate(525 215)"><path d="M0 -61L52.8 -30.5L52.8 30.5L0 61L-52.8 30.5L-52.8 -30.5Z" fill="#FF0066"></path></g><g transform="translate(724 241)"><path d="M0 -40L34.6 -20L34.6 20L0 40L-34.6 20L-34.6 -20Z" fill="#FF0066"></path></g><g transform="translate(61 165)"><path d="M0 -43L37.2 -21.5L37.2 21.5L0 43L-37.2 21.5L-37.2 -21.5Z" fill="#FF0066"></path></g></g></svg>