<svg id="visual" viewBox="0 0 900 600" width="900" height="600" xmlns="http://www.w3.org/2000/svg" xmlns:xlink="http://www.w3.org/1999/xlink" version="1.1"><rect width="900" height="600" fill="#000000"></rect><g><g transform="translate(751 492)"><path d="M0 -77.2L66.9 -38.6L66.9 38.6L0 77.2L-66.9 38.6L-66.9 -38.6Z" fill="#074405"></path></g><g transform="translate(228 51)"><path d="M0 -62L53.7 -31L53.7 31L0 62L-53.7 31L-53.7 -31Z" fill="#074405"></path></g><g transform="translate(174 422)"><path d="M0 -42L36.4 -21L36.4 21L0 42L-36.4 21L-36.4 -21Z" fill="#074405"></path></g><g transform="translate(545 292)"><path d="M0 -60L52 -30L52 30L0 60L-52 30L-52 -30Z" fill="#074405"></path></g><g transform="translate(826 194)"><path d="M0 -69L59.8 -34.5L59.8 34.5L0 69L-59.8 34.5L-59.8 -34.5Z" fill="#074405"></path></g><g transform="translate(125 588)"><path d="M0 -39L33.8 -19.5L33.8 19.5L0 39L-33.8 19.5L-33.8 -19.5Z" fill="#074405"></path></g><g transform="translate(120 179)"><path d="M0 -53L45.9 -26.5L45.9 26.5L0 53L-45.9 26.5L-45.9 -26.5Z" fill="#074405"></path></g><g transform="translate(418 502)"><path d="M0 -49L42.4 -24.5L42.4 24.5L0 49L-42.4 24.5L-42.4 -24.5Z" fill="#074405"></path></g><g transform="translate(384 255)"><path d="M0 -48L41.6 -24L41.6 24L0 48L-41.6 24L-41.6 -24Z" fill="#074405"></path></g><g transform="translate(490 78)"><path d="M0 -54L46.8 -27L46.8 27L0 54L-46.8 27L-46.8 -27Z" fill="#074405"></path></g><g transform="translate(31 41)"><path d="M0 -69L59.8 -34.5L59.8 34.5L0 69L-59.8 34.5L-59.8 -34.5Z" fill="#074405"></path></g><g transform="translate(687 21)"><path d="M0 -55L47.6 -27.5L47.6 27.5L0 55L-47.6 27.5L-47.6 -27.5Z" fill="#074405"></path></g><g transform="translate(830 352)"><path d="M0 -45L39 -22.5L39 22.5L0 45L-39 22.5L-39 -22.5Z" fill="#074405"></path></g><g transform="translate(11 347)"><path d="M0 -61L52.8 -30.5L52.8 30.5L0 61L-52.8 30.5L-52.8 -30.5Z" fill="#074405"></path></g><g transform="translate(596 596)"><path d="M0 -41L35.5 -20.5L35.5 20.5L0 41L-35.5 20.5L-35.5 -20.5Z" fill="#074405"></path></g><g transform="translate(859 26)"><path d="M0 -41L35.5 -20.5L35.5 20.5L0 41L-35.5 20.5L-35.5 -20.5Z" fill="#074405"></path></g><g transform="translate(663 184)"><path d="M0 -76L65.8 -38L65.8 38L0 76L-65.8 38L-65.8 -38Z" fill="#074405"></path></g><g transform="translate(896 557)"><path d="M0 -75L65 -37.5L65 37.5L0 75L-65 37.5L-65 -37.5Z" fill="#074405"></path></g></g></svg>