<svg id="visual" viewBox="0 0 900 600" width="900" height="600" xmlns="http://www.w3.org/2000/svg" xmlns:xlink="http://www.w3.org/1999/xlink" version="1.1"><rect width="900" height="600" fill="#000000"></rect><g><g transform="translate(260 145)"><path d="M0 -45.8L39.6 -22.9L39.6 22.9L0 45.8L-39.6 22.9L-39.6 -22.9Z" fill="#b1550a"></path></g><g transform="translate(231 575)"><path d="M0 -42L36.4 -21L36.4 21L0 42L-36.4 21L-36.4 -21Z" fill="#b1550a"></path></g><g transform="translate(646 70)"><path d="M0 -40L34.6 -20L34.6 20L0 40L-34.6 20L-34.6 -20Z" fill="#b1550a"></path></g><g transform="translate(878 203)"><path d="M0 -32L27.7 -16L27.7 16L0 32L-27.7 16L-27.7 -16Z" fill="#b1550a"></path></g><g transform="translate(145 44)"><path d="M0 -25L21.7 -12.5L21.7 12.5L0 25L-21.7 12.5L-21.7 -12.5Z" fill="#b1550a"></path></g><g transform="translate(814 366)"><path d="M0 -25L21.7 -12.5L21.7 12.5L0 25L-21.7 12.5L-21.7 -12.5Z" fill="#b1550a"></path></g><g transform="translate(485 371)"><path d="M0 -40L34.6 -20L34.6 20L0 40L-34.6 20L-34.6 -20Z" fill="#b1550a"></path></g><g transform="translate(818 40)"><path d="M0 -34L29.4 -17L29.4 17L0 34L-29.4 17L-29.4 -17Z" fill="#b1550a"></path></g><g transform="translate(401 478)"><path d="M0 -43L37.2 -21.5L37.2 21.5L0 43L-37.2 21.5L-37.2 -21.5Z" fill="#b1550a"></path></g><g transform="translate(441 235)"><path d="M0 -32L27.7 -16L27.7 16L0 32L-27.7 16L-27.7 -16Z" fill="#b1550a"></path></g><g transform="translate(93 257)"><path d="M0 -31L26.8 -15.5L26.8 15.5L0 31L-26.8 15.5L-26.8 -15.5Z" fill="#b1550a"></path></g><g transform="translate(732 597)"><path d="M0 -32L27.7 -16L27.7 16L0 32L-27.7 16L-27.7 -16Z" fill="#b1550a"></path></g><g transform="translate(79 559)"><path d="M0 -39L33.8 -19.5L33.8 19.5L0 39L-33.8 19.5L-33.8 -19.5Z" fill="#b1550a"></path></g><g transform="translate(634 599)"><path d="M0 -44L38.1 -22L38.1 22L0 44L-38.1 22L-38.1 -22Z" fill="#b1550a"></path></g><g transform="translate(652 476)"><path d="M0 -41L35.5 -20.5L35.5 20.5L0 41L-35.5 20.5L-35.5 -20.5Z" fill="#b1550a"></path></g><g transform="translate(266 360)"><path d="M0 -22L19.1 -11L19.1 11L0 22L-19.1 11L-19.1 -11Z" fill="#b1550a"></path></g><g transform="translate(845 554)"><path d="M0 -43L37.2 -21.5L37.2 21.5L0 43L-37.2 21.5L-37.2 -21.5Z" fill="#b1550a"></path></g><g transform="translate(339 268)"><path d="M0 -27L23.4 -13.5L23.4 13.5L0 27L-23.4 13.5L-23.4 -13.5Z" fill="#b1550a"></path></g><g transform="translate(764 226)"><path d="M0 -33L28.6 -16.5L28.6 16.5L0 33L-28.6 16.5L-28.6 -16.5Z" fill="#b1550a"></path></g><g transform="translate(351 32)"><path d="M0 -31L26.8 -15.5L26.8 15.5L0 31L-26.8 15.5L-26.8 -15.5Z" fill="#b1550a"></path></g><g transform="translate(748 444)"><path d="M0 -39L33.8 -19.5L33.8 19.5L0 39L-33.8 19.5L-33.8 -19.5Z" fill="#b1550a"></path></g><g transform="translate(529 50)"><path d="M0 -37L32 -18.5L32 18.5L0 37L-32 18.5L-32 -18.5Z" fill="#b1550a"></path></g><g transform="translate(611 373)"><path d="M0 -22L19.1 -11L19.1 11L0 22L-19.1 11L-19.1 -11Z" fill="#b1550a"></path></g><g transform="translate(218 455)"><path d="M0 -22L19.1 -11L19.1 11L0 22L-19.1 11L-19.1 -11Z" fill="#b1550a"></path></g><g transform="translate(372 376)"><path d="M0 -35L30.3 -17.5L30.3 17.5L0 35L-30.3 17.5L-30.3 -17.5Z" fill="#b1550a"></path></g><g transform="translate(584 149)"><path d="M0 -29L25.1 -14.5L25.1 14.5L0 29L-25.1 14.5L-25.1 -14.5Z" fill="#b1550a"></path></g><g transform="translate(2 188)"><path d="M0 -38L32.9 -19L32.9 19L0 38L-32.9 19L-32.9 -19Z" fill="#b1550a"></path></g><g transform="translate(27 467)"><path d="M0 -31L26.8 -15.5L26.8 15.5L0 31L-26.8 15.5L-26.8 -15.5Z" fill="#b1550a"></path></g><g transform="translate(898 306)"><path d="M0 -30L26 -15L26 15L0 30L-26 15L-26 -15Z" fill="#b1550a"></path></g><g transform="translate(253 42)"><path d="M0 -22L19.1 -11L19.1 11L0 22L-19.1 11L-19.1 -11Z" fill="#b1550a"></path></g><g transform="translate(646 268)"><path d="M0 -24L20.8 -12L20.8 12L0 24L-20.8 12L-20.8 -12Z" fill="#b1550a"></path></g><g transform="translate(497 574)"><path d="M0 -24L20.8 -12L20.8 12L0 24L-20.8 12L-20.8 -12Z" fill="#b1550a"></path></g><g transform="translate(212 270)"><path d="M0 -28L24.2 -14L24.2 14L0 28L-24.2 14L-24.2 -14Z" fill="#b1550a"></path></g><g transform="translate(162 183)"><path d="M0 -38L32.9 -19L32.9 19L0 38L-32.9 19L-32.9 -19Z" fill="#b1550a"></path></g><g transform="translate(93 366)"><path d="M0 -40L34.6 -20L34.6 20L0 40L-34.6 20L-34.6 -20Z" fill="#b1550a"></path></g><g transform="translate(64 88)"><path d="M0 -24L20.8 -12L20.8 12L0 24L-20.8 12L-20.8 -12Z" fill="#b1550a"></path></g><g transform="translate(700 348)"><path d="M0 -35L30.3 -17.5L30.3 17.5L0 35L-30.3 17.5L-30.3 -17.5Z" fill="#b1550a"></path></g><g transform="translate(734 109)"><path d="M0 -34L29.4 -17L29.4 17L0 34L-29.4 17L-29.4 -17Z" fill="#b1550a"></path></g><g transform="translate(558 485)"><path d="M0 -43L37.2 -21.5L37.2 21.5L0 43L-37.2 21.5L-37.2 -21.5Z" fill="#b1550a"></path></g><g transform="translate(443 91)"><path d="M0 -36L31.2 -18L31.2 18L0 36L-31.2 18L-31.2 -18Z" fill="#b1550a"></path></g><g transform="translate(388 595)"><path d="M0 -23L19.9 -11.5L19.9 11.5L0 23L-19.9 11.5L-19.9 -11.5Z" fill="#b1550a"></path></g><g transform="translate(872 453)"><path d="M0 -24L20.8 -12L20.8 12L0 24L-20.8 12L-20.8 -12Z" fill="#b1550a"></path></g><g transform="translate(315 516)"><path d="M0 -23L19.9 -11.5L19.9 11.5L0 23L-19.9 11.5L-19.9 -11.5Z" fill="#b1550a"></path></g><g transform="translate(718 11)"><path d="M0 -44L38.1 -22L38.1 22L0 44L-38.1 22L-38.1 -22Z" fill="#b1550a"></path></g><g transform="translate(358 161)"><path d="M0 -33L28.6 -16.5L28.6 16.5L0 33L-28.6 16.5L-28.6 -16.5Z" fill="#b1550a"></path></g><g transform="translate(554 240)"><path d="M0 -27L23.4 -13.5L23.4 13.5L0 27L-23.4 13.5L-23.4 -13.5Z" fill="#b1550a"></path></g><g transform="translate(897 89)"><path d="M0 -26L22.5 -13L22.5 13L0 26L-22.5 13L-22.5 -13Z" fill="#b1550a"></path></g><g transform="translate(4 286)"><path d="M0 -39L33.8 -19.5L33.8 19.5L0 39L-33.8 19.5L-33.8 -19.5Z" fill="#b1550a"></path></g><g transform="translate(1 19)"><path d="M0 -27L23.4 -13.5L23.4 13.5L0 27L-23.4 13.5L-23.4 -13.5Z" fill="#b1550a"></path></g><g transform="translate(125 458)"><path d="M0 -30L26 -15L26 15L0 30L-26 15L-26 -15Z" fill="#b1550a"></path></g></g></svg>